<svg width="410" height="410" xmlns="http://www.w3.org/2000/svg" viewBox="-2 -2 41 41" shape-rendering="crispEdges" xmlns:c2pa="http://c2pa.org/manifest"><metadata><c2pa:manifest>AAAWgmp1bWIAAAAeanVtZGMycGEAEQAQgAAAqgA4m3EDYzJwYQAAABZcanVtYgAAAEdqdW1kYzJtYQARABCAAACqADibcQN1cm46YzJwYTo5MzY3ZjE1Ni0xODgxLTQ5MzAtYTEyZC04ZjFjN2NlMWY1OWMAAAADl2p1bWIAAAApanVtZGMyYXMAEQAQgAAAqgA4m3EDYzJwYS5hc3NlcnRpb25zAAAAALxqdW1iAAAARGp1bWRjYm9yABEAEIAAAKoAOJtxE2MycGEuaW5ncmVkaWVudC52MwAAAAAYYzJzaAZza8JwoOxxvkd8xT1zniEAAABwY2JvcqNpZGM6Zm9ybWF0bWltYWdlL3N2Zyt4bWxqaW5zdGFuY2VJRHgseG1wOmlpZDpiYWUwZDFhYy1lMjkyLTQ4ZDktYTE5ZC00YjU4Nzk3MjM2NmVscmVsYXRpb25zaGlwaHBhcmVudE9mAAAB4mp1bWIAAABBanVtZGNib3IAEQAQgAAAqgA4m3ETYzJwYS5hY3Rpb25zLnYyAAAAABhjMnNo2Hp9lNh5yV8KkSoy2PjA4AAAAZljYm9yomdhY3Rpb25zgqJmYWN0aW9ua2MycGEub3BlbmVkanBhcmFtZXRlcnOha2luZ3JlZGllbnRzgaJjdXJseC1zZWxmI2p1bWJmPWMycGEuYXNzZXJ0aW9ucy9jMnBhLmluZ3JlZGllbnQudjNkaGFzaFggKjknQ2k9+17PMTmKQoJMWpOdaD9HqJFMQpH2PzfWi5qkZmFjdGlvbngdY29tLmFudGhyb3BpYy5jbGF1ZGUucHJvdmlkZWRqcGFyYW1ldGVyc6F4H2NvbS5hbnRocm9waWMub3JpZ2luLWNvbmZpZGVuY2VndW5rbm93bmtkZXNjcmlwdGlvbnhmQ2xhdWRlIHByb3ZpZGVkIHRoaXMgZmlsZSBhdCB0aGUgcmVxdWVzdCBvZiBhIHVzZXIgYW5kIG1heSBoYXZlIGNyZWF0ZWQgb3IgbW9kaWZpZWQgdGhlIGZpbGUgY29udGVudHMubXNvZnR3YXJlQWdlbnShZG5hbWVmQ2xhdWRlcmFsbEFjdGlvbnNJbmNsdWRlZPUAAADIanVtYgAAAEBqdW1kY2JvcgARABCAAACqADibcRNjMnBhLmhhc2guZGF0YQAAAAAYYzJzaLcxBr1J6tSSO/y23+QOGFAAAACAY2JvcqVjYWxnZnNoYTI1NmNwYWRNAAAAAAAAAAAAAAAAAGRoYXNoWCApBqYrSWpLrEWa3KiClp2zxVigE7kNApFs4loeTYoijGRuYW1lbmp1bWJmIG1hbmlmZXN0amV4Y2x1c2lvbnOBomVzdGFydBizZmxlbmd0aBkeBAAAAj5qdW1iAAAAJ2p1bWRjMmNsABEAEIAAAKoAOJtxA2MycGEuY2xhaW0udjIAAAACD2Nib3KlY2FsZ2ZzaGEyNTZpc2lnbmF0dXJleE1zZWxmI2p1bWJmPS9jMnBhL3VybjpjMnBhOjkzNjdmMTU2LTE4ODEtNDkzMC1hMTJkLThmMWM3Y2UxZjU5Yy9jMnBhLnNpZ25hdHVyZWppbnN0YW5jZUlEeCx4bXA6aWlkOjRkM2Q4MTA5LWRmMDgtNGNmYy1hMWQ2LTliODRmYzJhMGQ0NnJjcmVhdGVkX2Fzc2VydGlvbnODomN1cmx4LXNlbGYjanVtYmY9YzJwYS5hc3NlcnRpb25zL2MycGEuaW5ncmVkaWVudC52M2RoYXNoWCAqOSdDaT37Xs8xOYpCgkxak51oP0eokUxCkfY/N9aLmqJjdXJseCpzZWxmI2p1bWJmPWMycGEuYXNzZXJ0aW9ucy9jMnBhLmFjdGlvbnMudjJkaGFzaFggW2kKed9jyfhjuwX6hFY41FixT8n7AVHKyL6OYIUSJ0yiY3VybHgpc2VsZiNqdW1iZj1jMnBhLmFzc2VydGlvbnMvYzJwYS5oYXNoLmRhdGFkaGFzaFggpfS5plhc8MxBpNuBAKcRPXDGUEsB2fsZaFvoNlC847p0Y2xhaW1fZ2VuZXJhdG9yX2luZm+jZG5hbWVvQW50aHJvcGljIEZpbGVzZ3ZlcnNpb25lMS4wLjBrc3BlY1ZlcnNpb25lMi40LjAAABA4anVtYgAAAChqdW1kYzJjcwARABCAAACqADibcQNjMnBhLnNpZ25hdHVyZQAAABAIY2JvctKEWQISogEmGCFZAgowggIGMIIBjaADAgECAhRA5aAK7sI50L64g/oGQgU9Z1UTADAKBggqhkjOPQQDAzBJMRcwFQYDVQQKEw5BbnRocm9waWMsIFBCQzEuMCwGA1UEAxMlQW50aHJvcGljIENvbnRlbnQgQ3JlZGVudGlhbHMgUm9vdCBDQTAeFw0yNjA4MDcxODQzNTZaFw0yODA4MDYxOTQzNTZaMEQxFzAVBgNVBAoTDkFudGhyb3BpYywgUEJDMSkwJwYDVQQDEyBBbnRocm9waWMgQ2xhdWRlIENvbnRlbnQgU2lnbmluZzBZMBMGByqGSM49AgEGCCqGSM49AwEHA0IABJh6CmvLUBgFFNU0vUKlOVtE6djd17L5SuwX0LemFisBM3dkd/3cyjxFA3Qo5S46fX0/ihY0VZ7mfb9KF703t5OjWDBWMA4GA1UdDwEB/wQEAwIHgDAVBgNVHSUEDjAMBgorBgEEAYPoXgIBMAwGA1UdEwEB/wQCMAAwHwYDVR0jBBgwFoAUzlHiBIFOZFsj+OPEz5o+nMHXXMIwCgYIKoZIzj0EAwMDZwAwZAIwMXMdFJ4BetLLVY7ORuE9noqbbAZOZn/aArXyTwFAZfKrPzxF2vPoJNf1+UCdg1XGAjBwX1zd9WGqYkqmL5SFqw1QySjr1zJfpJM9+1rdDwSPLMOPOjKuiXjoU/pUUeG9RwmhY3BhZFkNngAAAAAAAAAAAAAAAAAAAAAAAAAAAAAAAAAAAAAAAAAAAAAAAAAAAAAAAAAAAAAAAAAAAAAAAAAAAAAAAAAAAAAAAAAAAAAAAAAAAAAAAAAAAAAAAAAAAAAAAAAAAAAAAAAAAAAAAAAAAAAAAAAAAAAAAAAAAAAAAAAAAAAAAAAAAAAAAAAAAAAAAAAAAAAAAAAAAAAAAAAAAAAAAAAAAAAAAAAAAAAAAAAAAAAAAAAAAAAAAAAAAAAAAAAAAAAAAAAAAAAAAAAAAAAAAAAAAAAAAAAAAAAAAAAAAAAAAAAAAAAAAAAAAAAAAAAAAAAAAAAAAAAAAAAAAAAAAAAAAAAAAAAAAAAAAAAAAAAAAAAAAAAAAAAAAAAAAAAAAAAAAAAAAAAAAAAAAAAAAAAAAAAAAAAAAAAAAAAAAAAAAAAAAAAAAAAAAAAAAAAAAAAAAAAAAAAAAAAAAAAAAAAAAAAAAAAAAAAAAAAAAAAAAAAAAAAAAAAAAAAAAAAAAAAAAAAAAAAAAAAAAAAAAAAAAAAAAAAAAAAAAAAAAAAAAAAAAAAAAAAAAAAAAAAAAAAAAAAAAAAAAAAAAAAAAAAAAAAAAAAAAAAAAAAAAAAAAAAAAAAAAAAAAAAAAAAAAAAAAAAAAAAAAAAAAAAAAAAAAAAAAAAAAAAAAAAAAAAAAAAAAAAAAAAAAAAAAAAAAAAAAAAAAAAAAAAAAAAAAAAAAAAAAAAAAAAAAAAAAAAAAAAAAAAAAAAAAAAAAAAAAAAAAAAAAAAAAAAAAAAAAAAAAAAAAAAAAAAAAAAAAAAAAAAAAAAAAAAAAAAAAAAAAAAAAAAAAAAAAAAAAAAAAAAAAAAAAAAAAAAAAAAAAAAAAAAAAAAAAAAAAAAAAAAAAAAAAAAAAAAAAAAAAAAAAAAAAAAAAAAAAAAAAAAAAAAAAAAAAAAAAAAAAAAAAAAAAAAAAAAAAAAAAAAAAAAAAAAAAAAAAAAAAAAAAAAAAAAAAAAAAAAAAAAAAAAAAAAAAAAAAAAAAAAAAAAAAAAAAAAAAAAAAAAAAAAAAAAAAAAAAAAAAAAAAAAAAAAAAAAAAAAAAAAAAAAAAAAAAAAAAAAAAAAAAAAAAAAAAAAAAAAAAAAAAAAAAAAAAAAAAAAAAAAAAAAAAAAAAAAAAAAAAAAAAAAAAAAAAAAAAAAAAAAAAAAAAAAAAAAAAAAAAAAAAAAAAAAAAAAAAAAAAAAAAAAAAAAAAAAAAAAAAAAAAAAAAAAAAAAAAAAAAAAAAAAAAAAAAAAAAAAAAAAAAAAAAAAAAAAAAAAAAAAAAAAAAAAAAAAAAAAAAAAAAAAAAAAAAAAAAAAAAAAAAAAAAAAAAAAAAAAAAAAAAAAAAAAAAAAAAAAAAAAAAAAAAAAAAAAAAAAAAAAAAAAAAAAAAAAAAAAAAAAAAAAAAAAAAAAAAAAAAAAAAAAAAAAAAAAAAAAAAAAAAAAAAAAAAAAAAAAAAAAAAAAAAAAAAAAAAAAAAAAAAAAAAAAAAAAAAAAAAAAAAAAAAAAAAAAAAAAAAAAAAAAAAAAAAAAAAAAAAAAAAAAAAAAAAAAAAAAAAAAAAAAAAAAAAAAAAAAAAAAAAAAAAAAAAAAAAAAAAAAAAAAAAAAAAAAAAAAAAAAAAAAAAAAAAAAAAAAAAAAAAAAAAAAAAAAAAAAAAAAAAAAAAAAAAAAAAAAAAAAAAAAAAAAAAAAAAAAAAAAAAAAAAAAAAAAAAAAAAAAAAAAAAAAAAAAAAAAAAAAAAAAAAAAAAAAAAAAAAAAAAAAAAAAAAAAAAAAAAAAAAAAAAAAAAAAAAAAAAAAAAAAAAAAAAAAAAAAAAAAAAAAAAAAAAAAAAAAAAAAAAAAAAAAAAAAAAAAAAAAAAAAAAAAAAAAAAAAAAAAAAAAAAAAAAAAAAAAAAAAAAAAAAAAAAAAAAAAAAAAAAAAAAAAAAAAAAAAAAAAAAAAAAAAAAAAAAAAAAAAAAAAAAAAAAAAAAAAAAAAAAAAAAAAAAAAAAAAAAAAAAAAAAAAAAAAAAAAAAAAAAAAAAAAAAAAAAAAAAAAAAAAAAAAAAAAAAAAAAAAAAAAAAAAAAAAAAAAAAAAAAAAAAAAAAAAAAAAAAAAAAAAAAAAAAAAAAAAAAAAAAAAAAAAAAAAAAAAAAAAAAAAAAAAAAAAAAAAAAAAAAAAAAAAAAAAAAAAAAAAAAAAAAAAAAAAAAAAAAAAAAAAAAAAAAAAAAAAAAAAAAAAAAAAAAAAAAAAAAAAAAAAAAAAAAAAAAAAAAAAAAAAAAAAAAAAAAAAAAAAAAAAAAAAAAAAAAAAAAAAAAAAAAAAAAAAAAAAAAAAAAAAAAAAAAAAAAAAAAAAAAAAAAAAAAAAAAAAAAAAAAAAAAAAAAAAAAAAAAAAAAAAAAAAAAAAAAAAAAAAAAAAAAAAAAAAAAAAAAAAAAAAAAAAAAAAAAAAAAAAAAAAAAAAAAAAAAAAAAAAAAAAAAAAAAAAAAAAAAAAAAAAAAAAAAAAAAAAAAAAAAAAAAAAAAAAAAAAAAAAAAAAAAAAAAAAAAAAAAAAAAAAAAAAAAAAAAAAAAAAAAAAAAAAAAAAAAAAAAAAAAAAAAAAAAAAAAAAAAAAAAAAAAAAAAAAAAAAAAAAAAAAAAAAAAAAAAAAAAAAAAAAAAAAAAAAAAAAAAAAAAAAAAAAAAAAAAAAAAAAAAAAAAAAAAAAAAAAAAAAAAAAAAAAAAAAAAAAAAAAAAAAAAAAAAAAAAAAAAAAAAAAAAAAAAAAAAAAAAAAAAAAAAAAAAAAAAAAAAAAAAAAAAAAAAAAAAAAAAAAAAAAAAAAAAAAAAAAAAAAAAAAAAAAAAAAAAAAAAAAAAAAAAAAAAAAAAAAAAAAAAAAAAAAAAAAAAAAAAAAAAAAAAAAAAAAAAAAAAAAAAAAAAAAAAAAAAAAAAAAAAAAAAAAAAAAAAAAAAAAAAAAAAAAAAAAAAAAAAAAAAAAAAAAAAAAAAAAAAAAAAAAAAAAAAAAAAAAAAAAAAAAAAAAAAAAAAAAAAAAAAAAAAAAAAAAAAAAAAAAAAAAAAAAAAAAAAAAAAAAAAAAAAAAAAAAAAAAAAAAAAAAAAAAAAAAAAAAAAAAAAAAAAAAAAAAAAAAAAAAAAAAAAAAAAAAAAAAAAAAAAAAAAAAAAAAAAAAAAAAAAAAAAAAAAAAAAAAAAAAAAAAAAAAAAAAAAAAAAAAAAAAAAAAAAAAAAAAAAAAAAAAAAAAAAAAAAAAAAAAAAAAAAAAAAAAAAAAAAAAAAAAAAAAAAAAAAAAAAAAAAAAAAAAAAAAAAAAAAAAAAAAAAAAAAAAAAAAAAAAAAAAAAAAAAAAAAAAAAAAAAAAAAAAAAAAAAAAAAAAAAAAAAAAAAAAAAAAAAAAAAAAAAAAAAAAAAAAAAAAAAAAAAAAAAAAAAAAAAAAAAAAAAAAAAAAAAAAAAAAAAAAAAAAAAAAAAAAAAAAAAAAAAAAAAAAAAAAAAAAAAAAAAAAAAAAAAAAAAAAAAAAAAAAAAAAAAAAAAAAAAAAAAAAAAAAAAAAAAAAAAAAAAAAAAAAAAAAAAAAAAAAAAAAAAAAAAAAAAAAAAAAAAAAAAAAAAAAAAAAAAAAAAAAAAAAAAAAAAAAAAAAAAAAAAAAAAAAAAAAAAAAAAAAAAAAAAAAAAAAAAAAAAAAAAAAAAAAAAAAAAAAAAAAAAAAAAAAAAAAAAAAAAAAAAAAAAAAAAAAAAAAAAAAAAAAAAAAAAAAAAAAAAAAAAAAAAAAAAAAAAAAAAAAAAAAAAAAAAAAAAAAAAAAAAAAAAAAAAAAAAAAAAAAAAAAAAAAAAAAAAAAAAAAAAAAAAAAAAAAAAAAAAAAAAAAAAAAAAAAAAAAAAAAAAAAAAAAAAAAAAAAAAAAAAAAAAAAAAAAAAAAAAAAAAAAAAAAAAAAAAAAAAAAAAAAAAAAAAAAAAAAAAAAAAAAAAAAAAAAAAAAAAAAAAAAAAAAAAAAAAAAAAAAAAAAAAAAAAAAAAAAAAAAAAAAAAAAAAAAAAAAAAAAAAAAAAAAAAAAAAAAAAAAAAAAAAAAAAAAAAAAAAAAAAAAAAAAAAAAAAAAAAAAAAAAAAAAAAAAAAAAAAAAAAAAAAAAAAAAAAAAAAAAAAAAAAAAAAAAAAAAAAAAAAAAAAAAAAAAAAAAAAAAAAAAAAAAAAAAAAAAAAAAAAAAAAAAAAAAAAAAAAAAAAAAAAAAAAAAAAAAAAAAAAAAAAAAAAAAAAAAAAAAAAAAAAAAAAAAAAAAAAAAAAAAAAAAAAAAAAAAAAAAAAAAAAAAAAAAAAAAAAAAAAAAAAAAAAAAAAAAAAAAAAAAAAAAAAAAAAAAAAAAAAAAAAAAAAAAAAAAAAAAAAAAAAAAAAAAAAAAAAAAAAAAAAAAAAAAAAAAAAAAAAAAAAAAAAAAAAAAAAAAAAAAAAAAAAAAAAAAAAAAAAAAAAAAAAAAAAAAAAAAAAAAAAAAAAAAAAAAAAAAAAAAAAAAAAAAAAAAAAAAAAAAAAAAAAAAAAAAAAAAAAAAAAAAAAAAAAAAAAAAAAAAAAAAAAAAAAAAAAAAAAAAAAAAAAAAAAAAAAAAAAAAAAAAAAAAAAAAAAAAAAAAAAAAAAPZYQKWRMC4DgO/mOM/VnuPKsy5OEqNEst0c4P2RA+uHa67zT7gv4pOqGw2DyfKPFxlmG+3WO68m0nhx4r7DzVamEQM=</c2pa:manifest></metadata><rect x="-2" y="-2" width="41" height="41" fill="#fff"/><path d="M2,2h1v1h-1zM3,2h1v1h-1zM4,2h1v1h-1zM5,2h1v1h-1zM6,2h1v1h-1zM7,2h1v1h-1zM8,2h1v1h-1zM14,2h1v1h-1zM15,2h1v1h-1zM16,2h1v1h-1zM18,2h1v1h-1zM19,2h1v1h-1zM20,2h1v1h-1zM21,2h1v1h-1zM22,2h1v1h-1zM23,2h1v1h-1zM25,2h1v1h-1zM28,2h1v1h-1zM29,2h1v1h-1zM30,2h1v1h-1zM31,2h1v1h-1zM32,2h1v1h-1zM33,2h1v1h-1zM34,2h1v1h-1zM2,3h1v1h-1zM8,3h1v1h-1zM11,3h1v1h-1zM12,3h1v1h-1zM15,3h1v1h-1zM16,3h1v1h-1zM17,3h1v1h-1zM19,3h1v1h-1zM24,3h1v1h-1zM28,3h1v1h-1zM34,3h1v1h-1zM2,4h1v1h-1zM4,4h1v1h-1zM5,4h1v1h-1zM6,4h1v1h-1zM8,4h1v1h-1zM10,4h1v1h-1zM11,4h1v1h-1zM12,4h1v1h-1zM13,4h1v1h-1zM14,4h1v1h-1zM15,4h1v1h-1zM17,4h1v1h-1zM19,4h1v1h-1zM20,4h1v1h-1zM22,4h1v1h-1zM23,4h1v1h-1zM25,4h1v1h-1zM28,4h1v1h-1zM30,4h1v1h-1zM31,4h1v1h-1zM32,4h1v1h-1zM34,4h1v1h-1zM2,5h1v1h-1zM4,5h1v1h-1zM5,5h1v1h-1zM6,5h1v1h-1zM8,5h1v1h-1zM10,5h1v1h-1zM12,5h1v1h-1zM14,5h1v1h-1zM16,5h1v1h-1zM17,5h1v1h-1zM18,5h1v1h-1zM22,5h1v1h-1zM25,5h1v1h-1zM26,5h1v1h-1zM28,5h1v1h-1zM30,5h1v1h-1zM31,5h1v1h-1zM32,5h1v1h-1zM34,5h1v1h-1zM2,6h1v1h-1zM4,6h1v1h-1zM5,6h1v1h-1zM6,6h1v1h-1zM8,6h1v1h-1zM10,6h1v1h-1zM11,6h1v1h-1zM12,6h1v1h-1zM14,6h1v1h-1zM17,6h1v1h-1zM19,6h1v1h-1zM20,6h1v1h-1zM25,6h1v1h-1zM28,6h1v1h-1zM30,6h1v1h-1zM31,6h1v1h-1zM32,6h1v1h-1zM34,6h1v1h-1zM2,7h1v1h-1zM8,7h1v1h-1zM10,7h1v1h-1zM12,7h1v1h-1zM13,7h1v1h-1zM15,7h1v1h-1zM17,7h1v1h-1zM18,7h1v1h-1zM20,7h1v1h-1zM22,7h1v1h-1zM23,7h1v1h-1zM26,7h1v1h-1zM28,7h1v1h-1zM34,7h1v1h-1zM2,8h1v1h-1zM3,8h1v1h-1zM4,8h1v1h-1zM5,8h1v1h-1zM6,8h1v1h-1zM7,8h1v1h-1zM8,8h1v1h-1zM10,8h1v1h-1zM12,8h1v1h-1zM14,8h1v1h-1zM16,8h1v1h-1zM18,8h1v1h-1zM20,8h1v1h-1zM22,8h1v1h-1zM24,8h1v1h-1zM26,8h1v1h-1zM28,8h1v1h-1zM29,8h1v1h-1zM30,8h1v1h-1zM31,8h1v1h-1zM32,8h1v1h-1zM33,8h1v1h-1zM34,8h1v1h-1zM10,9h1v1h-1zM12,9h1v1h-1zM13,9h1v1h-1zM14,9h1v1h-1zM17,9h1v1h-1zM20,9h1v1h-1zM23,9h1v1h-1zM25,9h1v1h-1zM2,10h1v1h-1zM4,10h1v1h-1zM5,10h1v1h-1zM6,10h1v1h-1zM7,10h1v1h-1zM8,10h1v1h-1zM14,10h1v1h-1zM15,10h1v1h-1zM16,10h1v1h-1zM17,10h1v1h-1zM18,10h1v1h-1zM19,10h1v1h-1zM22,10h1v1h-1zM24,10h1v1h-1zM26,10h1v1h-1zM28,10h1v1h-1zM29,10h1v1h-1zM30,10h1v1h-1zM31,10h1v1h-1zM32,10h1v1h-1zM5,11h1v1h-1zM7,11h1v1h-1zM9,11h1v1h-1zM10,11h1v1h-1zM11,11h1v1h-1zM13,11h1v1h-1zM14,11h1v1h-1zM18,11h1v1h-1zM21,11h1v1h-1zM22,11h1v1h-1zM25,11h1v1h-1zM28,11h1v1h-1zM29,11h1v1h-1zM31,11h1v1h-1zM32,11h1v1h-1zM34,11h1v1h-1zM4,12h1v1h-1zM6,12h1v1h-1zM7,12h1v1h-1zM8,12h1v1h-1zM9,12h1v1h-1zM10,12h1v1h-1zM11,12h1v1h-1zM14,12h1v1h-1zM17,12h1v1h-1zM18,12h1v1h-1zM20,12h1v1h-1zM22,12h1v1h-1zM24,12h1v1h-1zM30,12h1v1h-1zM32,12h1v1h-1zM2,13h1v1h-1zM3,13h1v1h-1zM4,13h1v1h-1zM5,13h1v1h-1zM6,13h1v1h-1zM7,13h1v1h-1zM9,13h1v1h-1zM12,13h1v1h-1zM16,13h1v1h-1zM18,13h1v1h-1zM23,13h1v1h-1zM24,13h1v1h-1zM27,13h1v1h-1zM28,13h1v1h-1zM30,13h1v1h-1zM31,13h1v1h-1zM32,13h1v1h-1zM33,13h1v1h-1zM2,14h1v1h-1zM3,14h1v1h-1zM5,14h1v1h-1zM7,14h1v1h-1zM8,14h1v1h-1zM9,14h1v1h-1zM10,14h1v1h-1zM11,14h1v1h-1zM12,14h1v1h-1zM20,14h1v1h-1zM21,14h1v1h-1zM23,14h1v1h-1zM25,14h1v1h-1zM26,14h1v1h-1zM30,14h1v1h-1zM31,14h1v1h-1zM33,14h1v1h-1zM3,15h1v1h-1zM6,15h1v1h-1zM9,15h1v1h-1zM14,15h1v1h-1zM16,15h1v1h-1zM17,15h1v1h-1zM18,15h1v1h-1zM22,15h1v1h-1zM25,15h1v1h-1zM28,15h1v1h-1zM31,15h1v1h-1zM33,15h1v1h-1zM34,15h1v1h-1zM4,16h1v1h-1zM6,16h1v1h-1zM8,16h1v1h-1zM12,16h1v1h-1zM15,16h1v1h-1zM21,16h1v1h-1zM23,16h1v1h-1zM27,16h1v1h-1zM28,16h1v1h-1zM30,16h1v1h-1zM31,16h1v1h-1zM32,16h1v1h-1zM33,16h1v1h-1zM3,17h1v1h-1zM5,17h1v1h-1zM6,17h1v1h-1zM7,17h1v1h-1zM9,17h1v1h-1zM10,17h1v1h-1zM11,17h1v1h-1zM13,17h1v1h-1zM16,17h1v1h-1zM18,17h1v1h-1zM21,17h1v1h-1zM22,17h1v1h-1zM23,17h1v1h-1zM24,17h1v1h-1zM26,17h1v1h-1zM27,17h1v1h-1zM28,17h1v1h-1zM29,17h1v1h-1zM30,17h1v1h-1zM31,17h1v1h-1zM32,17h1v1h-1zM8,18h1v1h-1zM10,18h1v1h-1zM12,18h1v1h-1zM16,18h1v1h-1zM19,18h1v1h-1zM21,18h1v1h-1zM24,18h1v1h-1zM26,18h1v1h-1zM27,18h1v1h-1zM29,18h1v1h-1zM30,18h1v1h-1zM34,18h1v1h-1zM4,19h1v1h-1zM6,19h1v1h-1zM14,19h1v1h-1zM19,19h1v1h-1zM20,19h1v1h-1zM21,19h1v1h-1zM22,19h1v1h-1zM24,19h1v1h-1zM25,19h1v1h-1zM28,19h1v1h-1zM29,19h1v1h-1zM31,19h1v1h-1zM32,19h1v1h-1zM34,19h1v1h-1zM5,20h1v1h-1zM8,20h1v1h-1zM10,20h1v1h-1zM12,20h1v1h-1zM13,20h1v1h-1zM15,20h1v1h-1zM16,20h1v1h-1zM17,20h1v1h-1zM18,20h1v1h-1zM19,20h1v1h-1zM22,20h1v1h-1zM24,20h1v1h-1zM26,20h1v1h-1zM27,20h1v1h-1zM28,20h1v1h-1zM29,20h1v1h-1zM30,20h1v1h-1zM32,20h1v1h-1zM33,20h1v1h-1zM2,21h1v1h-1zM4,21h1v1h-1zM5,21h1v1h-1zM7,21h1v1h-1zM12,21h1v1h-1zM13,21h1v1h-1zM16,21h1v1h-1zM18,21h1v1h-1zM19,21h1v1h-1zM20,21h1v1h-1zM21,21h1v1h-1zM22,21h1v1h-1zM25,21h1v1h-1zM26,21h1v1h-1zM27,21h1v1h-1zM28,21h1v1h-1zM29,21h1v1h-1zM30,21h1v1h-1zM31,21h1v1h-1zM32,21h1v1h-1zM33,21h1v1h-1zM2,22h1v1h-1zM3,22h1v1h-1zM6,22h1v1h-1zM7,22h1v1h-1zM8,22h1v1h-1zM9,22h1v1h-1zM10,22h1v1h-1zM12,22h1v1h-1zM13,22h1v1h-1zM14,22h1v1h-1zM18,22h1v1h-1zM22,22h1v1h-1zM23,22h1v1h-1zM24,22h1v1h-1zM26,22h1v1h-1zM27,22h1v1h-1zM29,22h1v1h-1zM30,22h1v1h-1zM31,22h1v1h-1zM33,22h1v1h-1zM34,22h1v1h-1zM2,23h1v1h-1zM10,23h1v1h-1zM15,23h1v1h-1zM17,23h1v1h-1zM20,23h1v1h-1zM23,23h1v1h-1zM25,23h1v1h-1zM27,23h1v1h-1zM28,23h1v1h-1zM32,23h1v1h-1zM34,23h1v1h-1zM2,24h1v1h-1zM4,24h1v1h-1zM8,24h1v1h-1zM10,24h1v1h-1zM12,24h1v1h-1zM15,24h1v1h-1zM17,24h1v1h-1zM18,24h1v1h-1zM19,24h1v1h-1zM20,24h1v1h-1zM22,24h1v1h-1zM23,24h1v1h-1zM24,24h1v1h-1zM26,24h1v1h-1zM28,24h1v1h-1zM30,24h1v1h-1zM33,24h1v1h-1zM2,25h1v1h-1zM4,25h1v1h-1zM5,25h1v1h-1zM12,25h1v1h-1zM13,25h1v1h-1zM14,25h1v1h-1zM15,25h1v1h-1zM16,25h1v1h-1zM17,25h1v1h-1zM20,25h1v1h-1zM23,25h1v1h-1zM30,25h1v1h-1zM31,25h1v1h-1zM32,25h1v1h-1zM34,25h1v1h-1zM2,26h1v1h-1zM3,26h1v1h-1zM7,26h1v1h-1zM8,26h1v1h-1zM10,26h1v1h-1zM12,26h1v1h-1zM14,26h1v1h-1zM17,26h1v1h-1zM19,26h1v1h-1zM20,26h1v1h-1zM24,26h1v1h-1zM26,26h1v1h-1zM27,26h1v1h-1zM28,26h1v1h-1zM29,26h1v1h-1zM30,26h1v1h-1zM33,26h1v1h-1zM34,26h1v1h-1zM10,27h1v1h-1zM11,27h1v1h-1zM12,27h1v1h-1zM15,27h1v1h-1zM16,27h1v1h-1zM18,27h1v1h-1zM20,27h1v1h-1zM21,27h1v1h-1zM22,27h1v1h-1zM23,27h1v1h-1zM25,27h1v1h-1zM26,27h1v1h-1zM30,27h1v1h-1zM32,27h1v1h-1zM34,27h1v1h-1zM2,28h1v1h-1zM3,28h1v1h-1zM4,28h1v1h-1zM5,28h1v1h-1zM6,28h1v1h-1zM7,28h1v1h-1zM8,28h1v1h-1zM16,28h1v1h-1zM17,28h1v1h-1zM18,28h1v1h-1zM20,28h1v1h-1zM23,28h1v1h-1zM25,28h1v1h-1zM26,28h1v1h-1zM28,28h1v1h-1zM30,28h1v1h-1zM32,28h1v1h-1zM33,28h1v1h-1zM2,29h1v1h-1zM8,29h1v1h-1zM10,29h1v1h-1zM14,29h1v1h-1zM15,29h1v1h-1zM17,29h1v1h-1zM21,29h1v1h-1zM22,29h1v1h-1zM23,29h1v1h-1zM24,29h1v1h-1zM25,29h1v1h-1zM26,29h1v1h-1zM30,29h1v1h-1zM31,29h1v1h-1zM32,29h1v1h-1zM33,29h1v1h-1zM2,30h1v1h-1zM4,30h1v1h-1zM5,30h1v1h-1zM6,30h1v1h-1zM8,30h1v1h-1zM10,30h1v1h-1zM12,30h1v1h-1zM14,30h1v1h-1zM15,30h1v1h-1zM20,30h1v1h-1zM21,30h1v1h-1zM23,30h1v1h-1zM26,30h1v1h-1zM27,30h1v1h-1zM28,30h1v1h-1zM29,30h1v1h-1zM30,30h1v1h-1zM31,30h1v1h-1zM34,30h1v1h-1zM2,31h1v1h-1zM4,31h1v1h-1zM5,31h1v1h-1zM6,31h1v1h-1zM8,31h1v1h-1zM10,31h1v1h-1zM12,31h1v1h-1zM13,31h1v1h-1zM14,31h1v1h-1zM17,31h1v1h-1zM18,31h1v1h-1zM19,31h1v1h-1zM22,31h1v1h-1zM23,31h1v1h-1zM24,31h1v1h-1zM25,31h1v1h-1zM26,31h1v1h-1zM27,31h1v1h-1zM30,31h1v1h-1zM31,31h1v1h-1zM34,31h1v1h-1zM2,32h1v1h-1zM4,32h1v1h-1zM5,32h1v1h-1zM6,32h1v1h-1zM8,32h1v1h-1zM10,32h1v1h-1zM11,32h1v1h-1zM15,32h1v1h-1zM19,32h1v1h-1zM21,32h1v1h-1zM24,32h1v1h-1zM26,32h1v1h-1zM28,32h1v1h-1zM29,32h1v1h-1zM31,32h1v1h-1zM2,33h1v1h-1zM8,33h1v1h-1zM13,33h1v1h-1zM15,33h1v1h-1zM18,33h1v1h-1zM20,33h1v1h-1zM21,33h1v1h-1zM22,33h1v1h-1zM23,33h1v1h-1zM24,33h1v1h-1zM25,33h1v1h-1zM30,33h1v1h-1zM31,33h1v1h-1zM32,33h1v1h-1zM2,34h1v1h-1zM3,34h1v1h-1zM4,34h1v1h-1zM5,34h1v1h-1zM6,34h1v1h-1zM7,34h1v1h-1zM8,34h1v1h-1zM10,34h1v1h-1zM19,34h1v1h-1zM21,34h1v1h-1zM25,34h1v1h-1zM26,34h1v1h-1zM27,34h1v1h-1zM28,34h1v1h-1zM29,34h1v1h-1zM33,34h1v1h-1z" fill="#111"/></svg>